<svg width="199" height="44" viewBox="0 0 199 44" fill="none" xmlns="http://www.w3.org/2000/svg">
<path d="M2.51868 42.6948C1.96512 42.6948 1.51801 42.6097 1.17736 42.4394C0.836708 42.3116 0.666382 42.12 0.666382 41.8645C0.666382 41.4387 1.34769 41.098 2.71029 40.8425C4.32839 40.5445 5.37163 40.0548 5.84003 39.3735C6.35101 38.6922 6.6065 37.5851 6.6065 36.0521V7.1819C6.6065 5.69155 6.43617 4.6483 6.09552 4.05216C5.79745 3.41344 4.83937 2.94504 3.22127 2.64697C1.81608 2.39148 1.11349 2.00825 1.11349 1.49727C1.11349 1.24178 1.26252 1.05017 1.56059 0.92242C1.85866 0.752094 2.32706 0.666931 2.96578 0.666931C4.11548 0.666931 5.00969 0.688223 5.64841 0.730806C6.28714 0.773387 6.88328 0.815968 7.43684 0.858549C7.99039 0.858549 8.69299 0.858549 9.54462 0.858549C10.4388 0.858549 11.1627 0.858549 11.7163 0.858549C12.3124 0.815968 12.9298 0.773387 13.5686 0.730806C14.2499 0.688223 15.1654 0.666931 16.3151 0.666931C17.5499 0.666931 18.1674 0.943711 18.1674 1.49727C18.1674 1.79534 17.997 2.02954 17.6564 2.19987C17.3157 2.37019 16.7835 2.51923 16.0596 2.64697C14.4841 2.94504 13.3557 3.47731 12.6744 4.24378C12.0356 4.96766 11.7163 5.94703 11.7163 7.1819V19.7647C11.7163 20.0202 11.8227 20.1905 12.0356 20.2757C12.2485 20.3183 12.4402 20.3396 12.6105 20.3396H36.3071C36.6051 20.3396 36.7542 20.0841 36.7542 19.5731V7.11802C36.7542 5.96832 36.4561 5.01024 35.86 4.24378C35.2638 3.47731 34.1567 2.94504 32.5386 2.64697C31.8147 2.51923 31.2825 2.37019 30.9418 2.19987C30.6012 2.02954 30.4308 1.79534 30.4308 1.49727C30.4308 0.943711 31.0483 0.666931 32.2831 0.666931C33.4328 0.666931 34.3696 0.688223 35.0935 0.730806C35.86 0.773387 36.5839 0.815968 37.2652 0.858549C37.9465 0.858549 38.7555 0.858549 39.6923 0.858549C40.4588 0.858549 41.0549 0.858549 41.4807 0.858549C41.9065 0.815968 42.3962 0.773387 42.9498 0.730806C43.5033 0.688223 44.355 0.666931 45.5047 0.666931C46.1008 0.666931 46.5479 0.752094 46.846 0.92242C47.1866 1.05017 47.357 1.24178 47.357 1.49727C47.357 2.00825 46.6544 2.39148 45.2492 2.64697C43.6737 2.94504 42.7156 3.45602 42.3749 4.1799C42.0343 4.90379 41.864 5.88316 41.864 7.11802V35.9883C41.864 37.5638 42.0556 38.6922 42.4388 39.3735C42.8646 40.0548 43.8653 40.5445 45.4408 40.8425C46.8034 41.098 47.4847 41.4387 47.4847 41.8645C47.4847 42.12 47.3144 42.3116 46.9737 42.4394C46.6331 42.6097 46.186 42.6948 45.6324 42.6948C44.4827 42.6948 43.5885 42.6523 42.9498 42.5671C42.3111 42.5245 41.7149 42.4819 41.1614 42.4394C40.6078 42.3968 39.8839 42.3755 38.9897 42.3755C38.0955 42.3755 37.3503 42.3968 36.7542 42.4394C36.2006 42.4819 35.5832 42.5245 34.9019 42.5671C34.2206 42.6523 33.3051 42.6948 32.1554 42.6948C31.6018 42.6948 31.1547 42.6097 30.8141 42.4394C30.4734 42.3116 30.3031 42.12 30.3031 41.8645C30.3031 41.5664 30.4521 41.3535 30.7502 41.2258C31.0908 41.098 31.6231 40.9703 32.347 40.8425C33.7096 40.5871 34.7741 40.0974 35.5406 39.3735C36.3497 38.607 36.7542 37.5425 36.7542 36.1799V23.7248C36.7542 23.5119 36.7542 23.299 36.7542 23.0861C36.7542 22.8732 36.6477 22.7667 36.4348 22.7667H12.0356C11.8227 22.7667 11.7163 23.0009 11.7163 23.4693V35.605C11.7163 36.9251 12.206 38.0748 13.1853 39.0541C14.1647 39.9909 15.3783 40.5871 16.8261 40.8425C17.5499 40.9703 18.0609 41.098 18.359 41.2258C18.6996 41.3535 18.87 41.5664 18.87 41.8645C18.87 42.12 18.6996 42.3116 18.359 42.4394C18.0183 42.6097 17.5712 42.6948 17.0177 42.6948C15.868 42.6948 14.9099 42.6523 14.1434 42.5671C13.4195 42.5245 12.7169 42.4819 12.0356 42.4394C11.3543 42.3968 10.524 42.3755 9.54462 42.3755C8.65041 42.3755 7.88394 42.3968 7.24522 42.4394C6.64908 42.4819 5.98907 42.5245 5.26518 42.5671C4.58388 42.6523 3.66838 42.6948 2.51868 42.6948Z" fill="white"/>
<path d="M52.8225 42.5671C52.4393 42.5671 52.1199 42.5032 51.8644 42.3755C51.6515 42.2903 51.5451 42.12 51.5451 41.8645C51.5451 41.5238 51.6941 41.2897 51.9922 41.1619C52.3328 41.0342 52.6735 40.9277 53.0141 40.8425C53.9084 40.6296 54.5897 40.3741 55.0581 40.0761C55.5265 39.7354 55.7607 39.1819 55.7607 38.4154V24.5551C55.7607 23.4054 55.5477 22.3835 55.1219 21.4893C54.7387 20.5951 53.9935 20.0628 52.8864 19.8925C52.6735 19.8499 52.5032 19.7647 52.3754 19.637C52.2903 19.5092 52.2477 19.3176 52.2477 19.0621C52.2477 18.5937 52.4393 18.3382 52.8225 18.2957C54.5258 17.9124 55.931 17.4014 57.0381 16.7627C58.1452 16.0814 58.9755 15.5279 59.5291 15.102C59.9123 14.804 60.2104 14.6549 60.4233 14.6549C60.6788 14.6549 60.8066 14.7614 60.8066 14.9743C60.8066 15.315 60.7427 15.9963 60.6149 17.0182C60.5298 17.9976 60.4446 19.1047 60.3594 20.3396C60.2743 21.5319 60.2317 22.6177 60.2317 23.5971V38.4154C60.2317 39.1393 60.4659 39.6716 60.9343 40.0122C61.4453 40.3529 62.1266 40.6296 62.9782 40.8425C63.3189 40.9277 63.6382 41.0342 63.9363 41.1619C64.2769 41.2897 64.4473 41.5238 64.4473 41.8645C64.4473 42.3329 64.0215 42.5671 63.1698 42.5671C62.3608 42.5671 61.7008 42.5245 61.1898 42.4394C60.7214 42.3968 60.253 42.3542 59.7846 42.3116C59.3588 42.269 58.7626 42.2477 57.9962 42.2477C57.2723 42.2477 56.6762 42.269 56.2078 42.3116C55.7394 42.3542 55.271 42.3968 54.8026 42.4394C54.3342 42.5245 53.6742 42.5671 52.8225 42.5671ZM57.9323 9.41742C57.0381 9.41742 56.2716 9.11935 55.6329 8.52321C55.0368 7.88449 54.7387 7.11802 54.7387 6.22381C54.7387 5.28702 55.0368 4.52056 55.6329 3.92441C56.2716 3.28569 57.0381 2.96633 57.9323 2.96633C58.8691 2.96633 59.6356 3.28569 60.2317 3.92441C60.8704 4.52056 61.1898 5.28702 61.1898 6.22381C61.1898 7.11802 60.8704 7.88449 60.2317 8.52321C59.6356 9.11935 58.8691 9.41742 57.9323 9.41742Z" fill="white"/>
<path d="M74.8659 43.2697C73.5459 43.2697 72.311 43.0568 71.1613 42.631C70.0116 42.2477 69.0323 41.6942 68.2232 40.9703C68.0103 40.5019 67.84 39.7141 67.7122 38.607C67.6271 37.4999 67.5632 36.5844 67.5206 35.8605C67.5206 35.4773 67.7974 35.2857 68.351 35.2857C68.5213 35.2857 68.6703 35.3282 68.7981 35.4134C68.9684 35.456 69.0748 35.5624 69.1174 35.7328C69.671 37.8193 70.5439 39.3096 71.7362 40.2038C72.9711 41.098 74.2059 41.5451 75.4408 41.5451C76.6756 41.5451 77.7189 41.1406 78.5705 40.3316C79.4647 39.4799 79.9118 38.4367 79.9118 37.2018C79.9118 36.0521 79.5286 35.0728 78.7621 34.2637C77.9957 33.4121 76.6543 32.3901 74.7382 31.1978C73.2904 30.3036 72.1194 29.452 71.2252 28.643C70.331 27.8339 69.671 27.0036 69.2452 26.1519C68.8619 25.3003 68.6703 24.3422 68.6703 23.2777C68.6703 21.9151 68.9897 20.6802 69.6284 19.5731C70.2671 18.466 71.2252 17.5931 72.5026 16.9543C73.7801 16.273 75.3769 15.9324 77.2931 15.9324C78.5705 15.9324 79.635 16.0601 80.4867 16.3156C81.3383 16.5711 81.977 16.8479 82.4029 17.146C82.7435 17.6144 83.0203 18.3595 83.2332 19.3815C83.4887 20.3609 83.6164 21.2977 83.6164 22.1919C83.6164 22.4899 83.4035 22.639 82.9777 22.639C82.7222 22.639 82.4667 22.5964 82.2112 22.5112C81.9983 22.3835 81.8493 22.2344 81.7641 22.0641C81.2106 20.6589 80.508 19.5944 79.6563 18.8705C78.8473 18.104 77.8253 17.7208 76.5905 17.7208C75.5259 17.7208 74.5679 18.0402 73.7162 18.6789C72.9072 19.3176 72.5026 20.2544 72.5026 21.4893C72.5026 22.4686 72.8007 23.3416 73.3969 24.108C74.0356 24.8745 75.2066 25.7474 76.9098 26.7268C79.3796 28.132 81.2106 29.452 82.4029 30.6869C83.6377 31.8791 84.2551 33.476 84.2551 35.4773C84.2551 37.7767 83.3822 39.6503 81.6364 41.098C79.8905 42.5458 77.6337 43.2697 74.8659 43.2697Z" fill="white"/>
<path d="M98.3864 43.2697C96.2999 43.2697 94.6605 42.631 93.4682 41.3535C92.3185 40.0761 91.7437 38.1812 91.7437 35.6689V20.8505C91.7437 20.5099 91.6159 20.2757 91.3604 20.148C91.1049 19.9776 90.5514 19.8925 89.6997 19.8925H89.3165C89.1036 19.8925 88.912 19.7647 88.7417 19.5092C88.6139 19.2112 88.55 18.9131 88.55 18.615C88.55 18.5299 88.6139 18.4021 88.7417 18.2318C88.8694 18.0615 88.9546 17.955 88.9972 17.9124C89.8488 17.3163 90.6152 16.7201 91.2965 16.124C92.0204 15.5279 92.6592 14.953 93.2127 14.3995C93.8089 13.8033 94.2985 13.271 94.6818 12.8026C94.8947 12.5897 95.065 12.4194 95.1928 12.2917C95.3631 12.1213 95.5547 12.0362 95.7676 12.0362C95.9805 12.0362 96.1721 12.0788 96.3425 12.1639C96.5554 12.2491 96.6405 12.4407 96.5979 12.7388L96.2786 15.613C96.236 16.0814 96.3425 16.4008 96.5979 16.5711C96.8534 16.7414 97.258 16.8266 97.8115 16.8266H105.093C105.263 16.8266 105.412 16.9756 105.54 17.2737C105.668 17.5292 105.732 17.8486 105.732 18.2318C105.732 18.615 105.668 18.9983 105.54 19.3815C105.412 19.7221 105.263 19.8925 105.093 19.8925H98.7696C97.7051 19.8925 97.0025 19.9776 96.6618 20.148C96.3637 20.3183 96.2147 20.8293 96.2147 21.6809V34.2637C96.2147 35.967 96.5766 37.3083 97.3005 38.2877C98.0244 39.267 99.0677 39.7567 100.43 39.7567C101.665 39.7567 102.623 39.6716 103.305 39.5012C103.986 39.2883 104.603 38.9903 105.157 38.607C105.242 38.5219 105.327 38.4793 105.412 38.4793C105.583 38.4793 105.689 38.5857 105.732 38.7986C105.817 38.969 105.859 39.1606 105.859 39.3735C105.859 39.5864 105.497 40.0122 104.774 40.6509C104.092 41.2897 103.177 41.8858 102.027 42.4394C100.92 42.9929 99.7064 43.2697 98.3864 43.2697Z" fill="white"/>
<path d="M121.345 43.2697C118.961 43.2697 116.81 42.7161 114.894 41.609C112.978 40.5019 111.445 38.9903 110.296 37.0741C109.188 35.1153 108.635 32.9011 108.635 30.4314C108.635 28.643 108.976 26.8971 109.657 25.1939C110.381 23.4906 111.381 21.9364 112.659 20.5312C113.936 19.126 115.427 18.0189 117.13 17.2098C118.833 16.3582 120.664 15.9324 122.623 15.9324C125.093 15.9324 127.307 16.5285 129.266 17.7208C131.267 18.9131 132.842 20.4886 133.992 22.4474C135.184 24.3635 135.781 26.4713 135.781 28.7707C135.781 31.2404 135.227 33.5824 134.12 35.7966C133.055 38.0109 131.459 39.8206 129.329 41.2258C127.2 42.5884 124.539 43.2697 121.345 43.2697ZM122.687 41.3535C124.135 41.3535 125.433 41.0767 126.583 40.5232C127.733 39.9696 128.627 39.0754 129.266 37.8406C129.777 36.8612 130.117 35.6689 130.288 34.2637C130.458 32.8585 130.543 31.5385 130.543 30.3036C130.543 28.2597 130.16 26.301 129.393 24.4274C128.669 22.5112 127.626 20.957 126.264 19.7647C124.944 18.5299 123.368 17.9124 121.537 17.9124C120.387 17.9124 119.344 18.104 118.407 18.4873C117.513 18.8279 116.683 19.4879 115.916 20.4673C115.065 21.5318 114.511 22.8306 114.256 24.3635C114 25.8965 113.872 27.4294 113.872 28.9623C113.872 31.0488 114.256 33.0501 115.022 34.9663C115.789 36.8399 116.832 38.3728 118.152 39.5651C119.472 40.7574 120.983 41.3535 122.687 41.3535Z" fill="white"/>
<path d="M141.153 42.5671C140.727 42.5671 140.408 42.5032 140.195 42.3755C139.982 42.2903 139.876 42.12 139.876 41.8645C139.876 41.5238 140.004 41.3109 140.259 41.2258C140.515 41.098 140.877 40.9703 141.345 40.8425C142.154 40.6296 142.75 40.3316 143.133 39.9483C143.559 39.5225 143.772 39.0115 143.772 38.4154V24.6829C143.772 23.5332 143.602 22.5325 143.261 21.6809C142.92 20.8293 142.218 20.297 141.153 20.0841C140.983 20.0415 140.834 19.935 140.706 19.7647C140.578 19.5944 140.515 19.4241 140.515 19.2537C140.515 18.8279 140.706 18.5724 141.089 18.4873C142.197 18.1466 143.346 17.6569 144.539 17.0182C145.773 16.3369 146.731 15.7834 147.413 15.3575C147.668 15.1872 147.86 15.0808 147.988 15.0382C148.158 14.953 148.286 14.9104 148.371 14.9104C148.584 14.9104 148.69 15.0595 148.69 15.3575C148.69 15.4853 148.669 15.8046 148.626 16.3156C148.626 16.8266 148.605 17.4227 148.562 18.104C148.562 18.7853 148.541 19.4666 148.499 20.148C148.499 20.2331 148.541 20.2757 148.626 20.2757C149.308 19.4241 150.053 18.6789 150.862 18.0402C151.714 17.4014 152.565 16.8905 153.417 16.5072C154.311 16.124 155.163 15.9324 155.972 15.9324C156.866 15.9324 157.59 16.124 158.143 16.5072C158.739 16.8905 159.038 17.3802 159.038 17.9763C159.038 18.4021 158.91 18.8705 158.654 19.3815C158.441 19.8925 158.143 20.3396 157.76 20.7228C157.377 21.106 156.972 21.2977 156.546 21.2977C156.291 21.2977 156.014 21.2551 155.716 21.1699C155.418 21.0422 155.099 20.8931 154.758 20.7228C154.417 20.5951 154.077 20.4673 153.736 20.3396C153.395 20.2118 153.055 20.148 152.714 20.148C151.692 20.148 150.692 20.5099 149.712 21.2338C148.775 21.9577 148.307 23.3841 148.307 25.5132V38.4154C148.307 38.969 148.605 39.4374 149.201 39.8206C149.797 40.1612 150.628 40.5019 151.692 40.8425C152.161 40.9703 152.523 41.098 152.778 41.2258C153.034 41.3535 153.161 41.5664 153.161 41.8645C153.161 42.3329 152.735 42.5671 151.884 42.5671C150.606 42.5671 149.627 42.5032 148.946 42.3755C148.307 42.2903 147.434 42.2477 146.327 42.2477C145.603 42.2477 145.007 42.269 144.539 42.3116C144.113 42.3542 143.644 42.3968 143.133 42.4394C142.665 42.5245 142.005 42.5671 141.153 42.5671Z" fill="white"/>
<path d="M162.166 42.5671C161.783 42.5671 161.464 42.5032 161.208 42.3755C160.995 42.2903 160.889 42.12 160.889 41.8645C160.889 41.5238 161.038 41.2897 161.336 41.1619C161.677 41.0342 162.017 40.9277 162.358 40.8425C163.252 40.6296 163.933 40.3741 164.402 40.0761C164.87 39.7354 165.104 39.1819 165.104 38.4154V24.5551C165.104 23.4054 164.891 22.3835 164.466 21.4893C164.082 20.5951 163.337 20.0628 162.23 19.8925C162.017 19.8499 161.847 19.7647 161.719 19.637C161.634 19.5092 161.591 19.3176 161.591 19.0621C161.591 18.5937 161.783 18.3382 162.166 18.2957C163.87 17.9124 165.275 17.4014 166.382 16.7627C167.489 16.0814 168.319 15.5279 168.873 15.102C169.256 14.804 169.554 14.6549 169.767 14.6549C170.023 14.6549 170.15 14.7614 170.15 14.9743C170.15 15.315 170.086 15.9963 169.959 17.0182C169.873 17.9976 169.788 19.1047 169.703 20.3396C169.618 21.5319 169.575 22.6177 169.575 23.5971V38.4154C169.575 39.1393 169.81 39.6716 170.278 40.0122C170.789 40.3529 171.47 40.6296 172.322 40.8425C172.663 40.9277 172.982 41.0342 173.28 41.1619C173.621 41.2897 173.791 41.5238 173.791 41.8645C173.791 42.3329 173.365 42.5671 172.514 42.5671C171.705 42.5671 171.044 42.5245 170.534 42.4394C170.065 42.3968 169.597 42.3542 169.128 42.3116C168.703 42.269 168.106 42.2477 167.34 42.2477C166.616 42.2477 166.02 42.269 165.551 42.3116C165.083 42.3542 164.615 42.3968 164.146 42.4394C163.678 42.5245 163.018 42.5671 162.166 42.5671ZM167.276 9.41742C166.382 9.41742 165.615 9.11935 164.977 8.52321C164.38 7.88449 164.082 7.11802 164.082 6.22381C164.082 5.28702 164.38 4.52056 164.977 3.92441C165.615 3.28569 166.382 2.96633 167.276 2.96633C168.213 2.96633 168.979 3.28569 169.575 3.92441C170.214 4.52056 170.534 5.28702 170.534 6.22381C170.534 7.11802 170.214 7.88449 169.575 8.52321C168.979 9.11935 168.213 9.41742 167.276 9.41742Z" fill="white"/>
<path d="M188.617 43.3336C186.488 43.3336 184.55 42.8013 182.804 41.7368C181.101 40.6296 179.739 39.1393 178.717 37.2657C177.737 35.3495 177.248 33.2205 177.248 30.8785C177.248 28.1107 177.844 25.5984 179.036 23.3416C180.271 21.0847 181.91 19.2963 183.954 17.9763C185.998 16.6137 188.255 15.9324 190.725 15.9324C193.492 15.9324 195.92 16.6776 198.006 18.1679C198.517 18.5511 198.773 18.9557 198.773 19.3815C198.773 19.7221 198.623 20.1054 198.325 20.5312C198.027 20.957 197.665 21.3189 197.24 21.617C196.814 21.8725 196.409 22.0002 196.026 22.0002C195.813 22.0002 195.6 21.9364 195.387 21.8086C195.174 21.6383 194.94 21.468 194.685 21.2977C193.748 20.5738 192.705 19.8925 191.555 19.2537C190.405 18.615 189.447 18.2957 188.681 18.2957C186.594 18.2957 184.891 19.275 183.571 21.2338C182.293 23.1499 181.655 25.6835 181.655 28.8346C181.655 30.8359 182.081 32.6456 182.932 34.2637C183.826 35.8818 184.997 37.1592 186.445 38.096C187.936 39.0328 189.575 39.5012 191.363 39.5012C192.598 39.5012 193.663 39.3096 194.557 38.9264C195.451 38.5006 196.409 37.7767 197.431 36.7547C197.516 36.6696 197.623 36.6057 197.751 36.5631C197.878 36.4779 197.985 36.4354 198.07 36.4354C198.538 36.4354 198.773 36.7334 198.773 37.3296C198.773 37.5851 198.687 37.8831 198.517 38.2238C198.389 38.5219 198.155 38.8838 197.814 39.3096C197.133 40.1612 196.324 40.9064 195.387 41.5451C194.45 42.1413 193.407 42.5884 192.258 42.8865C191.15 43.1845 189.937 43.3336 188.617 43.3336Z" fill="white"/>
</svg>
